# AST/ASF file generated using VICON BodyLanguage
# -----------------------------------------------
:version 1.10
:name VICON
:units
  mass 1.0
  length 0.45
  angle deg
:documentation
   .ast/.asf automatically generated from VICON data using
   VICON BodyBuilder and BodyLanguage model FoxedUp or BRILLIANT.MOD
:root
   order TX TY TZ RX RY RZ
   axis XYZ
   position 0 0 0  
   orientation 0 0 0 
:bonedata
  begin
     id 1 
     name lhipjoint
     direction 0.566809 -0.746272 0.349008 
     length 2.40479 
     axis 0 0 0  XYZ
  end
  begin
     id 2 
     name lfemur
     direction 0.34202 -0.939693 0  
     length 7.1578  
     axis 0 0 20  XYZ
    dof rx ry rz
    limits (-160.0 20.0)
           (-70.0 70.0)
           (-60.0 70.0)
  end
  begin
     id 3 
     name ltibia
     direction 0.34202 -0.939693 0   
     length 7.49137   
     axis 0 0 20   XYZ
    dof rx
    limits (-10.0 170.0)
  end
  begin
     id 4 
     name lfoot
     direction 0.0665746 -0.182912 0.980873   
     length 2.36784   
     axis -90 7.62852e-016 20   XYZ
    dof rx rz
    limits (-45.0 90.0)
           (-70.0 20.0)
  end
  begin
     id 5 
     name ltoes
     direction 1.53601e-011 -4.22058e-011 1   
     length 1.18966   
     axis -90 7.62852e-016 20   XYZ
    dof rx
    limits (-90.0 20.0)
  end
  begin
     id 6 
     name rhipjoint
     direction -0.550236 -0.756381 0.353735   
     length 2.37265  
     axis 0 0 0  XYZ 
  end
  begin
     id 7 
     name rfemur
     direction -0.34202 -0.939693 0   
     length 7.43386   
     axis 0 0 -20   XYZ
    dof rx ry rz
    limits (-160.0 20.0)
           (-70.0 70.0)
           (-70.0 60.0)
  end
  begin
     id 8 
     name rtibia
     direction -0.34202 -0.939693 0   
     length 7.50908   
     axis 0 0 -20   XYZ
    dof rx
    limits (-10.0 170.0)
 end
 begin
     id 9 
     name rfoot
     direction -0.0683029 -0.187661 0.979856   
     length 2.41173  
     axis -90 -7.62852e-016 -20   XYZ
    dof rx rz
    limits (-45.0 90.0)
           (-20.0 70.0)
  end
  begin
     id 10 
     name rtoes
     direction -1.53528e-011 -4.21968e-011 1   
     length 1.21082   
     axis -90 -7.62852e-016 -20   XYZ
    dof rx
    limits (-90.0 20.0)
  end
  begin
     id 11 
     name lowerback
     direction 0.013823 0.995423 -0.0945635   
     length 2.04495   
     axis 0 0 0   XYZ
    dof rx ry rz
    limits (-20.0 45.0)
           (-30.0 30.0)
           (-30.0 30.0)
  end
  begin
     id 12 
     name upperback
     direction 0.0276657 0.9994 -0.020853   
     length 2.05008   
     axis 0 0 0   XYZ
    dof rx ry rz
    limits (-20.0 45.0)
           (-30.0 30.0)
           (-30.0 30.0)
  end
  begin
     id 13 
     name thorax
     direction 0.019782 0.999531 0.0233827   
     length 2.06488   
     axis 0 0 0   XYZ
    dof rx ry rz
    limits (-20.0 45.0)
           (-30.0 30.0)
           (-30.0 30.0)
  end
  begin
     id 14 
     name lowerneck
     direction -0.0308541 0.994709 0.0979874   
     length 1.75553   
     axis 0 0 0   XYZ
    dof rx ry rz
    limits (-20.0 45.0)
           (-30.0 30.0)
           (-30.0 30.0)
  end
  begin
     id 15 
     name upperneck
     direction 0.0588398 0.995804 -0.0700903   
     length 1.76878   
     axis 0 0 0   XYZ
    dof rx ry rz
    limits (-20.0 45.0)
           (-30.0 30.0)
           (-30.0 30.0)
  end
  begin
     id 16
     name head
     direction 0.0209966 0.999159 -0.0352225  
     length 1.77193  
     axis 0 0 0   XYZ
    dof rx ry rz
    limits (-20.0 45.0)
           (-30.0 30.0)
           (-30.0 30.0)
  end
  begin
     id 17 
     name lclavicle
     direction 0.938182 0.335073 -0.0868338  
     length 3.58396  
     axis 0 0 0   XYZ
    dof ry rz
    limits (-20.0 10.0)
           (0.0 20.0)
  end
  begin
     id 18 
     name lhumerus
     direction 1 -4.48971e-011 -1.26313e-017   
     length 4.983   
     axis 180 -30 -90   XYZ
    dof rx ry rz
    limits (-60.0 90.0)
           (-90.0 90.0)
           (-90.0 90.0)
  end
  begin
     id 19
     name lradius
     direction 1 -4.48948e-011 -5.89033e-027   
     length 3.48356   
     axis 180 -30 -90   XYZ
    dof rx
    limits (-10.0 170.0)
  end
  begin
     id 20
     name lwrist
     direction 1 -4.48977e-011 -1.48983e-026   
     length 1.74178   
     axis 9.0955e-015 90 90   XYZ
    dof ry
    limits (-180.0 0.0)
 end
  begin
     id 21 
     name lhand
     direction 1 -4.49046e-011 -2.98066e-026   
     length 0.715259   
     axis 1.90115e-014 90 90   XYZ
    dof rx rz
    limits (-90.0 90.0)
           (-45.0 45.0)
  end
  begin
     id 22 
     name lfingers
     direction 1 -4.48907e-011 -5.95731e-026   
     length 0.576661   
     axis 3.80223e-014 90 90   XYZ
    dof rx
    limits (0.0 90.0)
  end
  begin
     id 23
     name lthumb
     direction 0.707107 -6.34963e-011 0.707107   
     length 0.827973   
     axis -90 45 -3.84942e-014   XYZ
    dof rx rz
    limits (-45.0 45.0)
           (-45.0 45.0)
  end
  begin
     id 24 
     name rclavicle
     direction -0.909637 0.398485 -0.11735   
     length 3.44819  
     axis 0 0 0   XYZ 
    dof ry rz
    limits (-10.0 20.0)
           (-20.0 0.0)
  end
  begin
     id 25 
     name rhumerus
     direction -1 -4.48978e-011 -1.09333e-027  
     length 5.2419   
     axis 180 30 90   XYZ
    dof rx ry rz
    limits (-90.0 60.0)
           (-90.0 90.0)
           (-90.0 90.0)
  end
  begin
     id 26 
     name rradius
     direction -1 -4.48953e-011 -7.61841e-027   
     length 3.44417   
     axis 180 30 90   XYZ
    dof rx
    limits (-10.0 170.0)
  end
  begin
     id 27 
     name rwrist
     direction -1 -4.48977e-011 -1.48983e-026   
     length 1.72209   
     axis 9.0955e-015 -90 -90   XYZ
    dof ry
    limits (-180.0 0.0)
  end
  begin
     id 28
     name rhand
     direction -1 -4.49027e-011 -2.98038e-026   
     length 0.622529   
     axis 1.90115e-014 -90 -90   XYZ
    dof rx rz
    limits (-90.0 90.0)
           (-45.0 45.0)
  end
  begin
     id 29
     name rfingers
     direction -1 -4.48838e-011 -5.95531e-026   
     length 0.501899   
     axis 3.80223e-014 -90 -90   XYZ
    dof rx
    limits (0.0 90.0)
  end
  begin
     id 30
     name rthumb
     direction -0.707107 -6.34937e-011 0.707107   
     length 0.720629   
     axis -90 -45 3.84942e-014   XYZ
    dof rx rz
    limits (-45.0 45.0)
           (-45.0 45.0)
  end
:hierarchy
  begin
    root lhipjoint rhipjoint lowerback
    lhipjoint lfemur
    lfemur ltibia
    ltibia lfoot
    lfoot ltoes
    rhipjoint rfemur
    rfemur rtibia
    rtibia rfoot
    rfoot rtoes
    lowerback upperback
    upperback thorax
    thorax lowerneck lclavicle rclavicle
    lowerneck upperneck
    upperneck head
    lclavicle lhumerus
    lhumerus lradius
    lradius lwrist
    lwrist lhand lthumb
    lhand lfingers
    rclavicle rhumerus
    rhumerus rradius
    rradius rwrist
    rwrist rhand rthumb
    rhand rfingers
  end

#!OML:ASF F:\VICON\USERDATA\Patient Classification 1\PLAYGROUND\JustinFriday\JustinFriday.ASF
:FULLY-SPECIFIED
:DEGREES
1
root 23.1604 18.1365 14.5682 3.91268 -22.9187 -0.364102
lowerback 11.4894 1.41797 1.15581
upperback 2.94419 2.06517 2.07727
thorax -3.39753 1.00558 1.21719
lowerneck -8.8994 0.915563 -2.03252
upperneck 16.7239 2.80366 -7.32109
head 6.65544 0.606428 -1.77834
rclavicle -6.16232e-015 -2.38542e-015
rhumerus -22.0297 -13.7956 -73.1351
rradius 20.7396
rwrist -7.3234
rhand -20.7131 -23.7904
rfingers 7.12502
rthumb 5.65139 -53.695
lclavicle -6.16232e-015 -2.38542e-015
lhumerus -29.3998 15.7131 78.9859
lradius 20.1097
lwrist -4.88759
lhand -21.3986 -5.32602
lfingers 7.12502
lthumb 4.98948 24.5952
rfemur 3.81974 -3.66291 22.2054
rtibia 16.9656
rfoot -11.9622 -22.2064
rtoes 39.4497
lfemur -24.9002 1.35115 -10.5955
ltibia 21.5876
lfoot -11.2509 7.8011
ltoes 4.30418
2
root 23.1821 18.1246 14.6284 4.1618 -22.5875 -0.489242
lowerback 11.4425 1.44535 1.19167
upperback 2.7966 2.10853 2.03474
thorax -3.52338 1.02716 1.14568
lowerneck -8.8922 0.894261 -2.26639
upperneck 16.8655 2.77345 -7.04179
head 6.6923 0.595631 -1.6533
rclavicle -8.68689e-014 4.77083e-015
rhumerus -22.3157 -13.4321 -73.245
rradius 21.6345
rwrist -7.54985
rhand -20.501 -23.8114
rfingers 7.12502
rthumb 5.85612 -53.7105
lclavicle -8.68689e-014 4.77083e-015
lhumerus -29.7769 16.9975 78.1644
lradius 19.457
lwrist -5.46086
lhand -21.8399 -5.61045
lfingers 7.12502
lthumb 4.56332 24.3204
rfemur 3.73029 -3.81976 22.2134
rtibia 17.1791
rfoot -12.203 -22.2795
rtoes 39.2791
lfemur -24.9409 1.16589 -10.3051
ltibia 21.0392
lfoot -11.234 8.87401
ltoes 4.79288
3
root 23.1887 18.1146 14.6994 3.96898 -22.2311 -0.545529
lowerback 11.5506 1.45197 1.07688
upperback 2.82009 2.1034 1.9695
thorax -3.55993 1.02527 1.14076
lowerneck -9.01071 0.928675 -2.22588
upperneck 17.1376 2.83383 -7.00347
head 6.80203 0.618441 -1.64432
rclavicle 2.98177e-015 7.15625e-015
rhumerus -22.0447 -13.1867 -73.4332
rradius 21.405
rwrist -7.34508
rhand -20.273 -23.2574
rfingers 7.12502
rthumb 6.07624 -53.1503
lclavicle 2.98177e-015 7.15625e-015
lhumerus -30.3328 18.2427 77.2629
lradius 19.1484
lwrist -6.23217
lhand -22.2252 -4.92066
lfingers 7.12502
lthumb 4.19133 25.0179
rfemur 4.44574 -4.22622 22.088
rtibia 16.7099
rfoot -11.9353 -22.2429
rtoes 38.8559
lfemur -24.6913 0.876112 -10.1061
ltibia 20.9675
lfoot -11.7107 9.8914
ltoes 5.42158
4
root 23.1917 18.0987 14.7854 3.63286 -21.8154 -0.761733
lowerback 11.5809 1.46713 1.20433
upperback 2.97487 2.1313 1.89524
thorax -3.4079 1.03838 0.989244
lowerneck -8.92205 1.02896 -1.77565
upperneck 17.2377 2.96594 -7.3529
head 6.83186 0.680253 -1.82164
rclavicle 6.55989e-015 -3.97569e-015
rhumerus -22.1196 -13.225 -73.6401
rradius 21.8017
rwrist -7.04818
rhand -20.0405 -23.3848
rfingers 7.12502
rthumb 6.30075 -53.2711
lclavicle 6.55989e-015 -3.97569e-015
lhumerus -30.7038 18.7669 76.5788
lradius 18.8715
lwrist -6.69843
lhand -22.1259 -3.85227
lfingers 7.12502
lthumb 4.28723 26.0843
rfemur 5.32109 -4.20548 22.2148
rtibia 16.3912
rfoot -11.8846 -22.6592
rtoes 38.4895
lfemur -24.1775 0.663036 -9.80147
ltibia 20.8533
lfoot -12.3208 10.6871
ltoes 7.62708
5
root 23.2044 18.0859 14.8768 3.37683 -21.2965 -0.992053
lowerback 11.5294 1.44271 1.40908
upperback 3.1157 2.11739 1.89957
thorax -3.22531 1.03116 0.88398
lowerneck -8.66024 0.813265 -2.18807
upperneck 16.9507 2.6408 -7.00069
head 6.67452 0.543236 -1.66516
rclavicle -1.13307e-014 3.97569e-015
rhumerus -21.8909 -13.0216 -73.7645
rradius 21.8957
rwrist -7.07284
rhand -20.4937 -23.3101
rfingers 7.12502
rthumb 5.86314 -53.209
lclavicle -1.13307e-014 3.97569e-015
lhumerus -31.0773 19.6715 75.9237
lradius 18.4707
lwrist -7.2034
lhand -21.8108 -3.53899
lfingers 7.12502
lthumb 4.59143 26.3912
rfemur 6.19903 -3.95627 22.4057
rtibia 15.9703
rfoot -12.0854 -23.231
rtoes 38.5585
lfemur -23.8047 0.637139 -9.58694
ltibia 20.8525
lfoot -12.6208 11.2809
ltoes 8.67439
6
root 23.2882 18.1017 14.9004 4.69891 -20.6625 -1.03997
lowerback 11.1673 1.31712 1.9543
upperback 2.59161 2.01617 1.72536
thorax -3.54645 0.976625 0.412237
lowerneck -8.34901 0.852139 -2.30019
upperneck 16.5642 2.67193 -7.01709
head 6.49624 0.570527 -1.64691
rclavicle 3.20043e-014 -6.36111e-015
rhumerus -21.3922 -12.6865 -73.9218
rradius 21.8741
rwrist -7.41448
rhand -20.7104 -22.5515
rfingers 7.12502
rthumb 5.65398 -52.456
lclavicle 3.20043e-014 -6.36111e-015
lhumerus -31.4238 20.8353 75.2128
lradius 18.1825
lwrist -7.88885
lhand -21.2498 -3.34114
lfingers 7.12502
lthumb 5.13317 26.5767
rfemur 5.23589 -3.91373 22.4849
rtibia 15.6188
rfoot -11.9857 -23.6724
rtoes 38.383
lfemur -25.2582 0.631564 -9.57661
ltibia 20.869
lfoot -12.5433 12.0814
ltoes 8.01532
7
root 23.3132 18.0908 14.987 4.73259 -20.1837 -1.02782
lowerback 10.9203 1.28622 2.00154
upperback 2.64406 1.9684 1.63238
thorax -3.35106 0.954785 0.302366
lowerneck -8.23765 1.06817 -1.92713
upperneck 16.5805 2.98565 -7.46913
head 6.50138 0.710559 -1.82872
rclavicle -1.98785e-014 -2.38542e-015
rhumerus -20.984 -12.2205 -74.1511
rradius 21.906
rwrist -7.9539
rhand -20.4212 -22.1894
rfingers 7.12502
rthumb 5.93319 -52.0863
lclavicle -1.98785e-014 -2.38542e-015
lhumerus -31.7851 21.303 74.7538
lradius 18.088
lwrist -8.04859
lhand -20.8391 -3.25255
lfingers 7.12502
lthumb 5.52974 26.6553
rfemur 5.54286 -4.05727 22.3759
rtibia 15.4691
rfoot -11.5963 -24.0967
rtoes 37.3927
lfemur -25.2379 0.620825 -9.69125
ltibia 20.8122
lfoot -12.4508 12.8003
ltoes 6.19118
